<svg width="63" height="11" viewBox="0 0 63 11" fill="none" xmlns="http://www.w3.org/2000/svg">
<path d="M11.32 11L7.465 0.994999H4.795L0.925 11H3.355L3.985 9.305H8.275L8.89 11H11.32ZM7.69 7.43H4.57L6.13 3.125L7.69 7.43ZM21.1989 11V0.994999H19.0689V7.28L14.4339 0.994999H12.2439V11H14.3739V4.475L19.1439 11H21.1989ZM27.6266 11V2.87H30.5366V0.994999H22.5566V2.87H25.4816V11H27.6266ZM40.0021 11L37.7521 7.19C38.8321 6.935 39.9421 5.99 39.9421 4.22C39.9421 2.36 38.6671 0.994999 36.5821 0.994999H31.9021V11H34.0321V7.445H35.5921L37.5571 11H40.0021ZM36.2671 5.57H34.0321V2.87H36.2671C37.1221 2.87 37.7671 3.38 37.7671 4.22C37.7671 5.06 37.1221 5.57 36.2671 5.57ZM43.6708 11V0.994999H41.5408V11H43.6708ZM54.987 11L51.132 0.994999H48.462L44.592 11H47.022L47.652 9.305H51.942L52.557 11H54.987ZM51.357 7.43H48.237L49.797 3.125L51.357 7.43ZM62.2709 11V9.125H58.0409V0.994999H55.9109V11H62.2709Z" fill="#4F46E5"/>
</svg>
